<svg width="354" height="82" viewBox="0 0 354 82" fill="none" xmlns="http://www.w3.org/2000/svg">
<g clip-path="url(#clip0_1_697)">
<path d="M353.387 68.4071L352.878 68.099L352.165 67.8937L351.657 67.3804L351.249 67.175L350.944 66.9697L350.537 66.4564L350.028 66.251L349.621 65.7377L349.112 65.5323L348.603 65.019L348.399 64.8137L347.89 64.3003L347.687 63.787L347.178 63.5816L346.974 63.171L346.465 62.6576L346.262 62.4523L345.753 61.9389L345.549 61.4256L345.142 61.0149L344.837 60.5016L344.633 59.9882L344.124 59.5776L343.921 59.0642L343.717 58.8589L343.208 58.3456L343.005 57.8322L342.699 57.1135L342.496 56.7029L341.987 56.1895L341.783 55.6762L341.58 55.2655L341.274 54.5468L341.071 54.0335L340.867 53.3148L340.562 52.5961L340.358 51.8774L340.155 51.3641L339.951 50.6454L339.646 49.9267L339.442 49.5161L339.238 48.7974L338.729 48.0787L338.526 47.5654L338.221 46.8467L338.017 46.436L337.508 45.7173L337.304 45.204L336.796 44.6907L336.592 44.28L336.083 43.5613L335.676 43.048L335.167 42.5346L334.76 42.1239L334.454 41.8159L334.047 41.4053L333.538 40.8919L333.029 40.6866L332.317 40.1733L331.91 39.9679L331.401 39.6599L330.892 39.2492L330.485 38.9412L329.976 38.7359L329.772 38.2225L329.263 37.8119L329.06 37.0932L328.856 36.5799L328.551 35.8612L328.347 35.1425V34.7318L328.551 32.9865L328.856 31.3438L329.06 29.3931L329.569 27.7504L329.772 25.7997L329.976 24.157L330.485 22.5143L330.688 20.5636H330.485L330.281 20.8716H329.976H329.772H329.569H329.06H328.856H328.551H328.347H328.144L327.838 20.5636H327.635H327.126H326.922L326.719 20.3583H326.21L326.006 20.1529L325.497 19.8449L325.294 19.6396H325.09L324.581 19.4342L324.377 19.1262L324.072 18.9209L323.665 18.7156L323.36 18.2022L323.156 17.9969L322.952 17.6889L322.647 17.4835L322.443 16.9702L322.24 16.7649L321.935 16.5595L321.527 15.8408L321.222 15.1222L321.018 14.4035L320.815 13.3768V12.6581L320.611 11.9394L320.306 11.2208L319.899 10.5021L319.593 10.2968L319.39 10.0914L319.186 9.78341H318.881L318.677 9.57808L318.474 9.37274H318.168L317.965 9.06473H317.761L317.252 8.8594H317.049L316.743 8.65406H316.54L316.031 8.34606H315.827H315.624L315.115 8.14072H314.911L314.402 7.93538H314.199H313.69L313.283 7.73005H312.977H312.57L312.265 7.42204H311.858H311.349H311.145H310.636H310.229H309.924H309.516H309.008L308.295 7.73005H307.786L307.379 7.93538H306.666L306.157 8.14072L305.75 8.34606L305.241 8.65406H304.529L304.02 8.8594H303.613L302.9 9.06473H302.391L301.882 9.37274H301.272H300.763H300.559H300.05L299.847 9.06473H299.541H299.338L299.134 8.8594H298.829H298.625L298.116 8.65406H297.913L297.709 8.34606H297.404L297.2 8.14072H296.997L296.488 7.93538H296.284H296.081L295.775 7.73005H295.572H295.368H295.063H294.859H294.656L294.35 7.42204H293.943H293.638H293.434H293.23H292.925H292.722L292.518 7.2167H292.213H292.009L291.805 7.01137H291.602L291.296 6.70336L290.889 6.49802H290.584L290.38 6.29269L290.177 5.98468L289.871 5.77935H289.668L289.464 5.57401H289.159L288.752 5.266H288.446H288.243H288.039H287.327H286.818H286.411L285.698 5.57401H285.189L284.68 5.77935H284.273L283.764 5.98468H283.255L282.848 6.29269L282.136 6.49802H281.627L280.914 6.70336L280.202 7.01137H279.286L278.573 7.2167H277.861L277.352 7.42204H276.944L276.232 7.73005H275.519H274.807H274.094L273.382 7.93538H272.669H271.957H271.244H270.532H270.125H269.412H268.903L268.191 7.73005H267.682L267.478 7.42204H266.969L266.562 7.2167H266.053L265.85 7.01137L265.341 6.70336H264.934L264.628 6.49802L264.221 6.29269H263.712L263.509 5.98468L263 5.77935L262.491 5.57401H262.287L261.88 5.266L261.371 5.06067L261.167 4.85533L260.658 4.54733H260.455L259.946 4.34199L259.437 4.13665L259.233 3.82865H258.724L258.317 3.62331L258.012 3.41797H257.605L257.096 3.10997L256.689 2.90463H256.383L255.976 2.6993H255.467L254.958 2.39129H254.551H254.246H253.839H253.33H252.821H252.617H252.21H251.701H251.192H250.785L250.48 2.6993L250.073 2.39129H249.564H249.055H248.851H248.648L248.342 2.18595H248.139H247.935L247.63 1.98062H247.426L247.223 1.67261H247.019L246.714 1.46727H246.51L246.306 1.26194H246.001L245.797 0.953933H245.594L245.289 0.748596H245.085L247.019 11.5288L255.874 7.42204L252.21 28.0584H261.676L258.012 50.2347H253.839L256.892 67.6884H257.096H257.605H257.808H258.317H258.724H259.03H259.437H259.946H260.15H260.658H261.167H261.371L261.88 67.3804H262.083H262.491L262.796 67.175H263.509L263.916 66.9697L264.628 66.6617L265.137 66.4564L265.85 66.251L266.359 65.943L266.766 65.7377L267.478 65.5323L267.987 65.019L268.7 64.8137L269.107 64.5057L269.819 64.3003L270.328 64.095H271.041L271.55 63.787L272.16 63.5816H272.669H273.382L273.891 63.3763H274.603L275.316 63.5816H276.028H276.741H277.352L278.064 63.787H278.777H279.489L279.998 64.095H280.711H281.423H282.136H282.543H283.052H283.561H283.968H284.477L284.68 63.787H285.189H285.393H285.698L286.105 63.5816H286.411H286.818H287.021H287.53H288.039L288.243 63.787H288.752L289.464 64.095L289.871 64.3003L290.38 64.8137L291.093 65.019L291.602 65.5323L292.009 65.943L292.518 66.251L292.925 66.6617L293.434 67.175L293.943 67.6884L294.35 67.8937L294.859 68.099L295.572 68.6124H296.081L296.488 68.8177H297.2H297.709H298.116L298.625 68.6124H299.134L299.541 68.4071H300.05L300.559 68.099L300.966 67.8937H301.475L301.882 67.6884L302.391 67.3804L302.595 67.175L303.104 66.9697L303.613 66.6617L304.02 66.4564L304.529 66.251L305.038 65.943L305.241 65.5323L305.75 65.2243L306.157 65.019L306.666 64.8137L307.074 64.5057L307.583 64.3003L308.091 64.095L308.295 63.787L308.804 63.5816L309.211 63.3763L309.72 63.171L310.229 62.863H310.636L311.145 62.6576L311.552 62.4523H311.858H312.265H312.57H312.977H313.486H313.69H314.199H314.708H315.115H315.42L315.827 62.6576H316.031L316.336 62.863L316.54 63.171H316.743L317.049 63.3763V63.787V64.095L316.743 64.3003L316.54 64.8137L316.031 65.019L315.827 65.2243L315.624 65.5323L315.115 65.943L314.911 66.251L314.402 66.4564L314.199 66.6617V66.9697L313.995 67.175V67.3804L314.199 67.6884H314.402L314.708 67.8937H314.911H315.42L315.624 68.099H315.827H316.031H316.336H316.743H317.049H317.252H317.456L317.965 67.8937H318.168H318.474H318.881L319.186 67.6884H319.593H319.899L320.306 67.3804H320.611H321.018L321.222 67.175H321.731L321.935 66.9697H322.443H322.952L323.36 66.6617H323.665L324.072 66.4564H324.581H325.09L325.497 66.251H326.006L326.719 65.943H327.126L327.838 65.7377H328.347L329.06 65.5323L329.569 65.2243H329.976L330.688 65.019H331.197L331.604 64.8137H332.317L332.826 64.5057L333.335 64.3003H333.742L334.251 64.095H334.76H335.167L335.676 63.787H336.083H336.592L337.101 63.5816H337.508H338.017H338.526H338.933H339.442H339.951L340.358 63.787H340.867L341.274 64.095H341.783L342.292 64.3003L342.699 64.5057L343.412 64.8137L343.921 65.019L344.43 65.2243L344.837 65.5323L345.346 65.7377L345.753 66.251L346.262 66.4564L346.771 66.6617L347.178 66.9697L347.687 67.3804L348.196 67.6884L348.603 67.8937L348.908 68.099H349.315L349.621 68.4071H349.824L350.028 68.6124H350.231H350.537L350.944 68.8177H351.249H351.453H351.657H351.962H352.165H352.674H352.878H353.082H353.59L353.794 68.6124L353.387 68.4071Z" fill="url(#paint0_linear_1_697)"/>
<path d="M314.199 67.3804L311.349 62.555L311.552 62.3496H312.061H312.265L312.774 62.1443H312.977H313.486H313.995H314.199H314.708H315.217L315.42 62.3496H315.929H316.133L316.336 62.555L316.54 62.7603L316.743 62.9656L316.947 63.171V63.3763V63.8897V64.095L316.743 64.3003L316.54 64.5057L316.336 64.711L315.827 64.9163L315.624 65.1217L315.115 65.327L314.911 65.8404L314.708 66.0457L314.504 66.251L314.3 66.4564V66.6617V67.3804H314.199Z" fill="#363639"/>
<path d="M297.404 45.1013L297.2 45.6146L296.691 46.3333L296.488 46.8467L295.979 46.9493L295.47 47.4627L294.961 47.976L294.452 48.1813L293.739 48.6947L293.23 48.9H292.518L292.009 49.1054L291.296 49.3107H290.788H290.075H289.363H288.854H288.141L287.632 49.1054L286.92 48.9H286.818L286.105 48.6947L285.596 48.4893L284.884 47.976L284.375 47.7707L283.866 47.2573L283.153 47.052L282.645 46.5386L282.136 46.0253L281.627 45.512L281.118 44.9986L280.609 44.4853L279.896 43.9719L279.693 43.4586L279.184 42.7399L278.675 42.2266L278.166 41.5079L277.962 40.9946L277.453 40.2759L277.25 39.5572L276.741 38.8385L276.537 38.3252L276.334 37.6065L276.13 36.8878L275.927 36.1691L275.723 35.4505L275.519 34.7318V34.0131L275.316 32.3704L275.112 30.9331L275.316 29.701V28.2637L275.519 27.0317L276.028 25.7996L276.537 24.8756L277.046 23.6436L277.759 22.9249L278.471 22.0009L279.387 21.4876L280.303 20.7689L281.22 20.2555L282.136 20.0502L283.357 19.8449H284.578L285.087 20.0502H285.8L286.512 20.2555L287.021 20.4609H287.734L288.446 20.9742L288.955 21.1796L289.668 21.3849L290.38 21.8982L290.889 22.4116L291.602 22.6169L292.111 23.1303L292.823 23.6436L293.332 24.3623L293.841 24.8756L294.35 25.5943L294.147 25.081L293.943 24.5676L293.434 24.0543L293.23 23.5409L292.721 23.0276L292.518 22.5143L292.009 22.3089L291.805 21.7956L291.296 21.2822L290.788 21.0769L290.584 20.5636L290.075 20.3582L289.566 19.8449L289.057 19.6395L288.854 19.4342L288.345 19.2289L287.836 18.7155L287.327 18.5102L286.818 18.3049L286.309 18.0995L286.105 17.8942L285.596 17.6888H285.087L284.578 17.4835L284.07 17.2782H283.764L283.255 17.0728H282.746L282.237 16.8675H281.728H281.525H281.016H280.303H279.591H278.878L278.166 17.0728H277.657L277.148 17.2782L276.435 17.4835L275.927 17.6888L275.214 18.2022L274.705 18.4075L274.196 18.9209L273.687 19.4342L273.178 19.6395L272.669 20.1529L272.16 20.8716L271.957 21.3849L271.448 21.8982L271.244 22.6169L271.041 23.3356L270.532 24.0543L270.328 24.5676V25.4916L270.125 26.2103L269.921 26.929V27.6477L269.718 28.3664V29.4957V30.2144V31.1384V32.0624L269.921 32.7811L270.125 33.7051V34.6291L270.328 34.8345V35.5531L270.532 36.4771L270.735 37.1958L271.244 38.1198L271.448 38.8385L271.957 39.7625L272.16 40.4812L272.669 41.4052L273.178 42.1239L273.687 42.8426L274.196 43.5613L274.705 44.2799L275.214 44.9986L275.927 45.7173L276.435 46.2306L277.148 46.9493L277.657 47.4627L278.369 48.1813L279.082 48.6947L279.591 49.208L280.303 49.7214L281.016 50.2347L281.728 50.44L282.441 50.9534L283.153 51.1587L283.866 51.3641L284.578 51.5694L285.291 51.7747L286.004 51.9801H286.716L287.429 52.1854H288.345L289.057 51.9801H289.973L290.686 51.7747L291.602 51.5694L292.314 51.0561H292.925L293.638 50.5427L294.35 49.824L294.859 49.3107L295.572 48.592L295.979 47.976L296.488 47.2573L296.997 46.3333L297.506 45.6146L297.709 44.6906L297.404 45.1013Z" fill="white"/>
<path d="M300.05 35.2452V35.0398L301.475 31.9598L298.422 32.8838L295.572 29.2904L296.284 33.6025L293.23 35.0398H293.739L296.793 36.4772L297.302 39.1466L297.811 41.0973L298.523 39.1466L299.236 37.5039L302.799 39.1466L300.05 35.2452Z" fill="white"/>
<g clip-path="url(#clip1_1_697)">
<path d="M0 15.4785H17.6975V37.5578C19.3829 35.6897 21.4055 34.3309 23.5967 33.4817C25.7877 32.6325 28.316 32.123 31.0126 32.123C36.5748 32.123 41.1254 34.1611 44.8336 38.2372C48.5416 42.3134 50.2271 48.088 50.2271 55.5612C50.2271 60.6564 49.3845 65.0722 47.6989 68.8088C46.0133 72.7151 43.8223 75.4325 40.7884 77.3007C37.9231 79.1691 34.5522 80.1881 31.0126 80.1881C27.979 80.1881 25.1135 79.5087 22.5854 78.1501C20.7312 77.1309 18.5402 75.0929 16.3491 72.3753V79.1691H0V15.4785ZM17.5289 55.9008C17.5289 59.8072 18.2031 62.6944 19.72 64.5628C21.2369 66.2612 23.0911 67.2802 25.2821 67.2802C27.3047 67.2802 29.1587 66.431 30.507 64.7326C31.8555 63.0342 32.6982 59.977 32.6982 55.9008C32.6982 52.3342 32.0239 49.6166 30.6756 47.9182C29.3273 46.2198 27.6417 45.3706 25.6191 45.3706C23.2595 45.3706 21.2369 46.2198 19.72 48.088C18.2031 49.6166 17.5289 52.1642 17.5289 55.9008Z" fill="white"/>
<path d="M103.994 60.3166H68.9358C69.273 63.204 69.9471 65.242 71.2956 66.6008C72.981 68.639 75.1722 69.658 77.8689 69.658C79.5544 69.658 81.2398 69.1484 82.7567 68.2992C83.768 67.7898 84.7793 66.7706 85.7906 65.412L102.982 66.9406C100.286 71.5262 97.2518 74.923 93.3752 76.7914C89.6672 78.9992 84.2737 80.0184 77.3632 80.0184C71.2956 80.0184 66.5761 79.1692 63.0368 77.4708C59.4973 75.7722 56.632 73.0548 54.4408 69.3184C52.0811 65.5818 51.0698 61.1658 51.0698 56.0707C51.0698 48.9373 53.4295 42.9929 57.9803 38.5771C62.5312 34.1611 68.9358 31.9532 76.8576 31.9532C83.431 31.9532 88.4873 32.9722 92.3639 35.0103C96.2405 37.0485 98.9373 39.9357 100.96 43.6723C102.982 47.4087 103.994 52.3343 103.994 58.4484V60.3166ZM86.1277 51.8247C85.7906 48.4279 84.9477 46.0501 83.431 44.5215C81.914 42.9929 80.0601 42.3135 77.5318 42.3135C74.835 42.3135 72.4753 43.5025 70.9584 45.7103C69.9471 47.0691 69.273 49.1073 68.9358 51.8247H86.1277Z" fill="white"/>
<path d="M127.759 15.4785V32.9722H137.366V45.8802H127.759V62.185C127.759 64.223 127.927 65.412 128.264 66.0914C128.77 67.1104 129.781 67.6198 131.298 67.6198C132.647 67.6198 134.332 67.2802 136.692 66.431L138.04 78.6595C133.658 79.6785 129.613 80.0183 125.905 80.0183C121.523 80.0183 118.32 79.5087 116.298 78.3199C114.275 77.1309 112.758 75.4325 111.747 73.2245C110.735 71.0167 110.23 67.2802 110.23 62.0152V45.8802H103.825V32.9722H110.23V24.4801L127.759 15.4785Z" fill="white"/>
<path d="M164.906 15.4785L161.863 33.0182H171.499L169.302 45.9602H159.666L156.792 62.3078C156.454 64.3514 156.454 65.5432 156.623 66.2245C156.961 67.2462 157.975 67.757 159.328 67.757C160.68 67.757 162.54 67.4164 164.906 66.5651L164.061 78.6556C159.497 79.6773 155.439 80.0179 151.72 80.0179C147.325 80.0179 144.282 79.5071 142.422 78.315C140.563 77.1229 139.379 75.4201 138.703 73.2063C138.196 70.9925 138.196 67.2462 139.21 61.9673L142.084 45.7899H135.66L137.858 32.8479H144.282L145.803 24.3335L164.906 15.4785Z" fill="url(#paint1_linear_1_697)"/>
<path d="M176.909 33.0182H194.491L186.376 79.1664H168.964L176.909 33.0182ZM179.952 15.4785H197.534L195.505 27.569H177.923L179.952 15.4785Z" fill="url(#paint2_linear_1_697)"/>
<path d="M204.127 15.4785H221.709L210.551 79.1664H192.969L204.127 15.4785Z" fill="url(#paint3_linear_1_697)"/>
<path d="M250.448 15.4785L247.404 33.0182H257.04L254.842 45.9602H245.206L242.334 62.3078C241.994 64.3514 241.994 65.5432 242.163 66.2245C242.502 67.2462 243.516 67.757 244.869 67.757C246.22 67.757 248.081 67.4164 250.448 66.5651L249.603 78.8258C245.038 79.8475 240.98 80.1881 237.261 80.1881C232.866 80.1881 229.823 79.6773 227.964 78.4852C226.103 77.2933 224.921 75.5903 224.244 73.3765C223.736 71.1627 223.736 67.4164 224.752 62.1376L227.625 45.9602H221.201L223.399 33.0182H229.823L231.345 24.5038L250.448 15.4785Z" fill="url(#paint4_linear_1_697)"/>
</g>
</g>
<defs>
<linearGradient id="paint0_linear_1_697" x1="240.975" y1="29.734" x2="337.659" y2="46.7632" gradientUnits="userSpaceOnUse">
<stop stop-color="#D80515"/>
<stop offset="0.2667" stop-color="#96040F"/>
<stop offset="0.5067" stop-color="#D60515"/>
<stop offset="0.7067" stop-color="#AA0713"/>
<stop offset="0.8667" stop-color="#D80515"/>
<stop offset="1" stop-color="#A00410"/>
</linearGradient>
<linearGradient id="paint1_linear_1_697" x1="135.66" y1="47.8333" x2="257.04" y2="47.8333" gradientUnits="userSpaceOnUse">
<stop stop-color="#FFC700"/>
<stop offset="1" stop-color="#FFEA21"/>
</linearGradient>
<linearGradient id="paint2_linear_1_697" x1="135.66" y1="47.8333" x2="257.04" y2="47.8333" gradientUnits="userSpaceOnUse">
<stop stop-color="#FFC700"/>
<stop offset="1" stop-color="#FFEA21"/>
</linearGradient>
<linearGradient id="paint3_linear_1_697" x1="135.66" y1="47.8333" x2="257.04" y2="47.8333" gradientUnits="userSpaceOnUse">
<stop stop-color="#FFC700"/>
<stop offset="1" stop-color="#FFEA21"/>
</linearGradient>
<linearGradient id="paint4_linear_1_697" x1="135.66" y1="47.8333" x2="257.04" y2="47.8333" gradientUnits="userSpaceOnUse">
<stop stop-color="#FFC700"/>
<stop offset="1" stop-color="#FFEA21"/>
</linearGradient>
<clipPath id="clip0_1_697">
<rect width="354" height="82" fill="white"/>
</clipPath>
<clipPath id="clip1_1_697">
<rect width="257.04" height="68.3333" fill="white" transform="translate(0 13.6667)"/>
</clipPath>
</defs>
</svg>
